
<global>
amp_veltrack=0
ampeg_release=0.35
</global>

<group>
group_label=Group_87-127
lpc_hicc1=127
lpc_locc1=87

<region>
hikey=B4
hivel=127
lokey=A#4
lovel=1
lpc=SqpvQeXQNcK3vIxCgx+Ywvw0iUKrsljCaSkWQi4hv8FOeo9BnKl8wX6SgEF8X4XB8QuGQaq2ZMGJpjlBdG4EweIJjED/sL2/Bt0JQB+XW8CKvWxAC8UswLS20T/AZOq+
lpc_rms=-29.45
pitch_keycenter=A#4
sample=Trumpet_rip_FF_A#4.opus
</region>

<region>
hikey=B5
hivel=127
lokey=A#5
lovel=1
lpc=7JAOQR+pa8F5YI5BfElswcuYTEHpdw7Bs7sGQW3MxsBsULZABHsAwIjc5D5DgR5AAwnGv7T3tT+aLwFAAI1UwIk9v0AdKKLABlu3QG/djcCJXchAJOm9wBd93UDkB1LA
lpc_rms=-26.72
pitch_keycenter=A#5
sample=Trumpet_rip_FF_A#5.opus
</region>

<region>
hikey=C#4
hivel=127
lokey=C4
lovel=1
lpc=7AGPQXXXbcJV1b1ComrMwpT3s0KLk4rC3gg5Qn7s1sGdxGVB8qgAwWBY1kBupPTAae8UQWjaJcFkyBdBscnMwMLMLUCjuDK+9tc1vyn4bT8q2PG/KK03QGZWCMD0XhA/
lpc_rms=-36.59
sample=Trumpet_rip_FF_C4.opus
</region>

<region>
hikey=C#5
hivel=127
lokey=C5
lovel=1
lpc=Oi05QZGYBsKi5kpCqa5ZwpvmRkIDPCXCvB4AQomEu8GDt4tB5CpLwWYlL0Gb2DjBxVpQQRdQUMGzN0pBDPw1wf8bFUFnZgDBpPHxQMOwsMBpYDFAGjGmvyBHiT/2Jxm/
lpc_rms=-29.42
pitch_keycenter=C5
sample=Trumpet_rip_FF_C5.opus
</region>

<region>
hikey=F6
hivel=127
lokey=C6
lovel=1
lpc=ND/bQW9qS8JsL0NC5a4dws7y/0EH/qzBFiV9QTNjCcH/btVAv6YlwGX+C0CTHoM/yCoHv/ZNOkBIi4G/8vDmPwPv173J1ztAkmNLwIvr+UCn7DDBB/CjQdiU/sG/h59B
lpc_rms=-24.19
pitch_keycenter=C6
sample=Trumpet_rip_FF_C6.opus
</region>

<region>
hikey=D#4
hivel=127
lokey=D4
lovel=1
lpc=ONFOQSm4FcJeU1JCn71Hwm1MHEK31s7BwhJmQf1B28AQH4VANM9kwMsoiEAdaYbAiIFcQL/J3L/24ks9qjaPP087074lAha/aQeRP31V2r4yP4u/SSkMQJ9/zr9kiyo/
lpc_rms=-32.58
pitch_keycenter=D4
sample=Trumpet_rip_FF_D4.opus
</region>

<region>
hikey=D#5
hivel=127
lokey=D5
lovel=1
lpc=1K/gQGmbgsENrJRBJIpuwROgKUF+tOfAhjODQPlnBMB1hwVAifwAwBU3A0DkUNS/XK+pP4/iYr8kW7o/vXAnwANVaECpR3PAbnNMQKH6EMCaUV4/3EruPqZWcL+zCU8/
lpc_rms=-28.78
pitch_keycenter=D5
sample=Trumpet_rip_FF_D5.opus
</region>

<region>
hikey=F4
hivel=127
lokey=E4
lovel=1
lpc=E1RyQTIOP8I0kpFCMFeTwgj/Z0JwPxDC4i2CQdIJl8BgFw9ADNtAwCMbSkAGxZC/+wfyvzdlYUAOGei/X10IwP4Xs0DnONHA0NqYQCjmKr9UUG/ADZWsQDsmZsBDwIk/
lpc_rms=-32.97
pitch_keycenter=E4
sample=Trumpet_rip_FF_E4.opus
</region>

<region>
hikey=F5
hivel=127
lokey=E5
lovel=1
lpc=evEHQdlruMHbOPZBotDewe4xrkFamHnB1WEvQQPx/MAuW8NAV5p9wMjIEECxDvO/tchYQLJRYcCNpaU/zXjgP7vEQcAGvQJAUnnbPjWaIsA6R1hAkhsNwHyByT6tEKs+
lpc_rms=-29.16
pitch_keycenter=E5
sample=Trumpet_rip_FF_E5.opus
</region>

<region>
hikey=G4
hivel=127
lokey=F#4
lovel=1
lpc=FG88QYKaCMKRBz5CEBcvwn4jAUKoUpzBxE0LQeC7ur+330q/eNYFPs2Goj8tRvi/hv8LQFzkv7+tNH8/usOIv4sbuz+KhKq/XoWRP47L375pdQW/zpyNPxzcTb/1MtM+
lpc_rms=-34.28
pitch_keycenter=F#4
sample=Trumpet_rip_FF_F#4.opus
</region>

<region>
hikey=G5
hivel=127
lokey=F#5
lovel=1
lpc=qVKbQZwMWsJ336RCvjSxwmRKokLDnoDCkPU2QpO74MEKZX5BtZDdwLhlREDUWTq/fx8JPbiGKkCAeo3AHgPQQEhQ08AvdfBArdbswHVcFkFwEDrBpwVwQYVRVcE4huBA
lpc_rms=-26.70
pitch_keycenter=F#5
sample=Trumpet_rip_FF_F#5.opus
</region>

<region>
hikey=A4
hivel=127
lokey=G#4
lovel=1
lpc=vco9QQ21FMKh0mVChLh3wpuUYUJ37TjCjqIEQu8MnsHybChBzWG1wFPgE0CQmYO/8NooQHCLb8CRNm5AJ41/wOttnUBk7MTAeFnwQKdb/MC1N9BADotYwPA94D765dI+
lpc_rms=-32.35
pitch_keycenter=G#4
sample=Trumpet_rip_FF_G#4.opus
</region>

<region>
hikey=A5
hivel=127
lokey=G#5
lovel=1
lpc=JqWbQR80PMIi2YlCpiyNwi0Tf0LVTEXCOrYSQsdJr8Gaj05Bn9SMwN0yC0DyT2Q+auYJQG9QtL8LHBpAwDcDPpPdmT/G8li+mDfAP/C4uT/rRgfAnHK4QPs7psBcRaJA
lpc_rms=-26.84
pitch_keycenter=G#5
sample=Trumpet_rip_FF_G#5.opus
</region>
</group>

<group>
group_label=Group_0-42
lpc_hicc1=42
lpc_locc1=0

<region>
hikey=B4
hivel=127
lokey=A#4
lovel=1
lpc=xv4OQsPd3MJ+6AVDY6OIwqmqtD6okF5ByJyEwP71jb7elSY+FVTfPhg1IEDT2nXAoSmYvwyjgEDwa10/PT6IwHhpsT+Sj0lArTuDwBsiSD+na3BA0aG/wAaLoED8RfW/
lpc_rms=-41.27
pitch_keycenter=A#4
sample=Trumpet_rip_PP_A#4.opus
</region>

<region>
hikey=B5
hivel=127
lokey=A#5
lovel=1
lpc=UeMLQj2EyMJvB/lC/n6twnQxMUIxcLHBhuYCQZsFAz9++v0/y5LEwHHAvkDpk/S/3v2NPu7/l7/uNJpAqCPgwNGD5UBjDkjA0dIDwKtEhkAqqvE/jStuwJ6pFMDeHz1A
lpc_rms=-38.36
pitch_keycenter=A#5
sample=Trumpet_rip_PP_A#5.opus
</region>

<region>
hikey=C#4
hivel=127
lokey=C4
lovel=1
lpc=GnccQsMS/ML7uB5DZHe6woUq0UHYKPLA9FudPx3Dj0Ac08O/R5IkwLnJZkAj/SXA9ecfvldT8z8Xp6W/5ErnvgaSdT/SsVM/i0fCv/9kkD6SNma/J0g7QNKbJsCflks/
lpc_rms=-45.59
sample=Trumpet_rip_PP_C4.opus
</region>

<region>
hikey=C#5
hivel=127
lokey=C5
lovel=1
lpc=Us5uQjSRS8NDxIpDrEM5w2K2hkLFz+DBvI6JQaV0Pz3dQADBw2sbQXVLJcHSpH1AufyOvvR7HkHfAGDBR66fP3NHOkFWjjnBCQqNP8D25kD8I6/Am+ytQDwMBcHYG4tA
lpc_rms=-41.34
pitch_keycenter=C5
sample=Trumpet_rip_PP_C5.opus
</region>

<region>
hikey=F6
hivel=127
lokey=C6
lovel=1
lpc=E78dQmLv0cIhnwtD1xj5wvZoskJlUlzCZt8UQjoE5sEq0NpBhxSpwT0vTEHQrYe/XrZbwKJ8S0D1EstAkG5wwdrunEFLLFbBRb4FQWiM98AOWZRBfdrRwd8oVEEP9lE/
lpc_rms=-31.67
pitch_keycenter=C6
sample=Trumpet_rip_PP_C6.opus
</region>

<region>
hikey=D#4
hivel=127
lokey=D4
lovel=1
lpc=RHUNQoiU2MK7DPxC76FjwkKzrsByXzlB46xGP/KnScAXAJk9Ub2QP8WQLD9/ZJy/gvQZvxLr0j/JV269zYy4vyWdiz9YCKU+SZmKv7Tz1D2ykIw/cDs3P47DLsAuOso/
lpc_rms=-45.19
pitch_keycenter=D4
sample=Trumpet_rip_PP_D4.opus
</region>

<region>
hikey=D#5
hivel=127
lokey=D5
lovel=1
lpc=qOdxQn2fT8M3aZhDBwF9w8SOE0NfYp3C0lQNQoFuysCMB5Q/mEO0wBUwoEAlewDAQ2muvuuWp0BWj9vA2Oh/P+6UAkExPjjBodieQBlKCkGbh8DBvZoTQhbtAsKrEUtB
lpc_rms=-39.76
pitch_keycenter=D5
sample=Trumpet_rip_PP_D5.opus
</region>

<region>
hikey=F4
hivel=127
lokey=E4
lovel=1
lpc=gDgIQhHavcJaZ7JCPcCLwW5WXsGTEia/fXsCQMRuXUAkD3s/saTxv4sxqr6NT+G+ZHKDv3O5IkDGLnI/jJs4wGGTvz4PtwJA1Zjlv+aHbr/4jMA/ORUNQJzdWsDZQp0/
lpc_rms=-43.37
pitch_keycenter=E4
sample=Trumpet_rip_PP_E4.opus
</region>

<region>
hikey=F5
hivel=127
lokey=E5
lovel=1
lpc=ZsBpQhjeOcO+sYBDCVBBwxyipUJlNafBo849QS40QMF0c9q/4EqOQf64WMEH4A/As1AgQeVwvMDMzbVAFxwcweKOIUEaiHfArzRfwHJ4PkF8ZJ/BNY3vQXUt7MHZ71pB
lpc_rms=-35.66
pitch_keycenter=E5
sample=Trumpet_rip_PP_E5.opus
</region>

<region>
hikey=G4
hivel=127
lokey=F#4
lovel=1
lpc=ytQnQokRDsPAmURDj8QNw4d9gUJuewLC0DWsQYXuC8FD412+Z87fv9d7B0ExDPfAeXuHP7aRSUDudATA4PZXwLd27UAp4hvA+sS5wPnKqUBzeAG/xSEBQPWxlsCpWBpA
lpc_rms=-44.84
pitch_keycenter=F#4
sample=Trumpet_rip_PP_F#4.opus
</region>

<region>
hikey=G5
hivel=127
lokey=F#5
lovel=1
lpc=Y1NGQhWB78IHycxCfy2nwUKPJ8HGP4M/ooQSQDpKYD+0ii/AQck1QEIfPkCu6T/ABH2IP+gMB0DIr2fAg8V0v+augUCVdEtA5touv9hjV8AvrMW/OYG0vt1AGEGcrJPA
lpc_rms=-38.16
pitch_keycenter=F#5
sample=Trumpet_rip_PP_F#5.opus
</region>

<region>
hikey=A4
hivel=127
lokey=G#4
lovel=1
lpc=b04SQmzG38K40QNDMyeFwo2Fq0CfxyFBNKe1wBXQG8BCdVNA45g7QD2Ijb/Fj0bAhcDHvwvTjEB21nE/GFxqwGgVtD+ZX14/1dUCwHiDvj5TAPg/QgJ9vq+2/78FibU/
lpc_rms=-40.69
pitch_keycenter=G#4
sample=Trumpet_rip_PP_G#4.opus
</region>

<region>
hikey=A5
hivel=127
lokey=G#5
lovel=1
lpc=xcwwQmuJAcPrBB1DEl3HwpT0K0KQALDBGFRQQVI4AMHD/chAuFzqPg0i58AK5tdAN5E8wG+PZ0ClmjrA6O+EvxnImT5smLtA3msNwQAdG0GHqFTBHRmOQcmvR8HDPiRA
lpc_rms=-40.08
pitch_keycenter=G#5
sample=Trumpet_rip_PP_G#5.opus
</region>
</group>

<group>
group_label=Group_43-86
lpc_hicc1=86
lpc_locc1=43

<region>
hikey=B4
hivel=127
lokey=A#4
lovel=1
lpc=t+WcQceIb8LadqJCwHyDwk/1DUKDUSPBiiCDwGQu3UBJLQvAEnIJwAhuN0AVqMC/PWNlv+DLP0DaWsW/eqwHwAO2N0C3hpK/iDYMP4u8bz8L2zfARRPCP5/0ZD/FORa/
lpc_rms=-31.79
pitch_keycenter=A#4
sample=Trumpet_rip_MF_A#4.opus
</region>

<region>
hikey=B5
hivel=127
lokey=A#5
lovel=1
lpc=gU7/QeyakcJOM8lCsX/LwjSOqkLdbG3CRZAQQkGskMGYeQNBl3sgwI2abz/S7so/B50IwHVw0T91qR1AXiWpwIkm/EBNCwLBq0gjQbS+RcE3goxBku+qwZftsUFFk2fB
lpc_rms=-29.43
pitch_keycenter=A#5
sample=Trumpet_rip_MF_A#5.opus
</region>

<region>
hikey=C#4
hivel=127
lokey=C4
lovel=1
lpc=alKSQYbDbMLDyq5CcKCfwprDVkK2EODBmi0OQW76lD/8MWHAQF5QQDwqLcAFzhRA6A4QwGtr5z/z7Mw+BQBrwBN8lUCIMR3ARljRvuAgC0AmEC/AAUwTQMlgqr9sDN0+
lpc_rms=-38.83
sample=Trumpet_rip_MF_C4.opus
</region>

<region>
hikey=C#5
hivel=127
lokey=C5
lovel=1
lpc=G4K9QWhOlsLnf+ZCnpDlwmqSqUJ13zjCH/xgQaocj0Ac1vzA3kuNQDfcJD8Hi07AJt4yQLXC3b6aY82/NFguQINyAMDsOwVAwspHwCkTHEAGBoy/wyLXP0r9CMBdJ08/
lpc_rms=-29.77
pitch_keycenter=C5
sample=Trumpet_rip_MF_C5.opus
</region>

<region>
hikey=F6
hivel=127
lokey=C6
lovel=1
lpc=M3USQg5HisKfIIpCcrliwkOSQkKoxg3CohrpQbR7nsEjCJNB2j9NwVmPVEFncgDBk2zvQLcGz74KlOm+Idq0QCAqocDMQiVBNPguwds7lUGhJbjBGPEPQlt2O8KvFtxB
lpc_rms=-27.12
pitch_keycenter=C6
sample=Trumpet_rip_MF_C6.opus
</region>

<region>
hikey=D#4
hivel=127
lokey=D4
lovel=1
lpc=Y8d9QetfOMIVi3NCmwRDwhve2UFUYg7BP3jav1/unkBwTWfATiOZP8Wyoz8plFi/n36Yv1IRxD/pdF8/DekOwJOz1j+HSj2/zPIWPzy+CT/y4gvAOokrQLdA7r/u9FI/
lpc_rms=-35.40
pitch_keycenter=D4
sample=Trumpet_rip_MF_D4.opus
</region>

<region>
hikey=D#5
hivel=127
lokey=D5
lovel=1
lpc=S0SfQXphe8LHRLlCG7qrwmi/Z0InIO7BUBUvQTS0T75wDqbAWCW4QKvvBsCy7nq/mWP8P+IjnL9hIWs/puCSv2jeoz+Jeim9EGciwPsGlUA2T7HAHM60QNxuhcDCsN4/
lpc_rms=-30.06
pitch_keycenter=D5
sample=Trumpet_rip_MF_D5.opus
</region>

<region>
hikey=F4
hivel=127
lokey=E4
lovel=1
lpc=VxqBQTlEP8JE+HhCUlMzwtm2jEH8KWk/cT3/wAzyt0Cy4hw/6kd6wCN5SkCMbXS+etYGwHKvHECG5uK+Ch7Jv5n3kT/8KXY+nysrv829Sj/8pqm+8HtZvx9Olz8FFJq+
lpc_rms=-36.59
pitch_keycenter=E4
sample=Trumpet_rip_MF_E4.opus
</region>

<region>
hikey=F5
hivel=127
lokey=E5
lovel=1
lpc=+cszQasLA8I5vztCppwwwgaUAkJ2Sp/BSXEeQe4JdsAjrQBAk0rIvzlboz7/wfI/gjr1v+sWoD8YnAq/F6gqv4kK7j99GGq/drEHwKzQuEAQJf/AmEoFQXrhtMBxegJA
lpc_rms=-33.83
pitch_keycenter=E5
sample=Trumpet_rip_MF_E5.opus
</region>

<region>
hikey=G4
hivel=127
lokey=F#4
lovel=1
lpc=mCRtQR4/P8IK8phCHfSpwvpbnkKP4YLCXXdFQstSDMI2zMlBTi+fwegAkkEjvYXBxFxZQeZnCsGhe7xAJrjlwB79JkFqmU7BDLJfQR3/QsFFlgxBFDKkwNUUAUAFn0K+
lpc_rms=-35.17
pitch_keycenter=F#4
sample=Trumpet_rip_MF_F#4.opus
</region>

<region>
hikey=G5
hivel=127
lokey=F#5
lovel=1
lpc=u7uaQX9WPMLvR15CLxYhwtOdt0EyEwDBrNImvyfXMkAQ204+5dqJv6eMQUDTxArACS6svUMkCkAZeiS+xTwDPtnKhj4qkB0/ilHJvxtgekDEwY7Aa1YNQbb2MsElLOdA
lpc_rms=-30.37
pitch_keycenter=F#5
sample=Trumpet_rip_MF_F#5.opus
</region>

<region>
hikey=A4
hivel=127
lokey=G#4
lovel=1
lpc=IEiDQaptVcLtGaVCJqqrwiNJkkKmc1rCMtAPQuLdxcHTorZBpga7wYOkqEFI6YTBUV4wQdXEf8AqMF4/xNCBwFJS+UDtSujA9hiMQFDA2L8jG7m+5czSPwBA3r87WFc/
lpc_rms=-34.30
pitch_keycenter=G#4
sample=Trumpet_rip_MF_G#4.opus
</region>

<region>
hikey=A5
hivel=127
lokey=G#5
lovel=1
lpc=UF65QaOkcsLhA5dC+vFawvM310E+L9/AZ3E7wE7dxUDq+BfAwj6gvqyiLEAehonAf56rQHz+DcAaZLo/bwZjv0jJKr6Z5uA/jwIRP0UT/L/rfJpAAdkEwcpMH0Ej3XbA
lpc_rms=-33.18
pitch_keycenter=G#5
sample=Trumpet_rip_MF_G#5.opus
</region>
</group>